<?xml version="1.0" encoding="UTF-8"?>
<svg id="Capa_1" data-name="Capa 1" xmlns="http://www.w3.org/2000/svg" viewBox="0 0 136.06 136.06">
  <path d="M124.1,68.03c0,30.97-25.1,56.07-56.07,56.07S11.96,99,11.96,68.03,37.06,11.96,68.03,11.96s56.07,25.1,56.07,56.07ZM111.01,96.27c.04.21.32.27.43.09,10.19-15.4,11.02-35.94,2.43-52.29-7.98-15.18-22.27-25.27-39.4-27.36-33.77-4.11-61.37,23.7-57.88,57.34.63,6.04,2.61,12.21,5.47,17.57.12.22.46.13.45-.12-.03-.68-.02-1.37-.02-2.06,0-1.57-.11-1.24-.53-2.67-.66-2.27-.17-4.71,1.29-6.59.42-.55,1.03-.83,1.32-1.36.61-1.11,1.08-3.13,1.66-4.43,3.33-7.59,9.78-16,17.79-18.9,2.16-.78,7.51-1.8,8.99-3,.12-.1.33-.27.51-.46s-.03-.48-.26-.38c-2.28.9-5.3-.4-6.19-2.69-.45-1.15-.19-2.1-.44-2.96-.08-.3-.69-.94-.91-1.6-.8-2.47.3-5.47,2.71-6.5.13-.06.18-.22.11-.34-.31-.48-1.18-1.45-1.37-1.75-.79-1.22-1.58-2.7-.57-4.06.39-.53,2.78-1.92,3.56-2.52,2.31-1.79,4.36-3.9,6.74-5.61,8.33-5.97,18.37-7.24,25.29,1.52,3.38,4.28,6.23,8.12,4.41,13.86-.44,1.37-.8,2.75-1.25,4.12-.17.52-.74,1.28-.8,1.67-.12.69.32,2.32.27,3.34-.21,3.8-2.8,7.34-5.19,10.15-.1.11-.06.29.07.36,7.63,4.22,11.06,12.44,13.89,20.26.45,1.23.95,3.64,1.47,4.62.31.58,1.65,1.15,2.26,2.22.87,1.51.33,1.66,1.74,3.1.3.31,1.7,1.92,1.82,1.98.39.23,2.25.38,2.96.58,1.74.48,4.94,2.34,6.39,3.45.51.39.71.88.82,1.44ZM80.78,26.93c.23.11.44-.16.29-.36-.7-.91-2.25-2.39-2.54-2.64-5.57-4.69-12.54-3.62-18.42-.16-4.26,2.51-7.48,6.44-11.72,9-.02,0-.03.02-.04.03-.64.63.34,1.72.76,2.3.79,1.09,1.82,2.1,2.74,3.1.13.14.35.08.4-.1l.86-2.89s0-.02,0-.03c1.76-4.22,5.05-8.58,9.52-10.11.25-.09.43.25.22.42-4.65,3.64-8.7,8.58-9.03,14.72-.01.21-.15,1.53.27,1.35,4.59-3.28,8.5-7.62,12.99-10.99,3.78-2.83,8.98-5.82,13.69-3.64ZM84.32,39.31c.78-3.77-1.78-5.47-4.32-7.66-.02-.02-.04-.04-.05-.06l-1.5-2.61c-.1-.18-.37-.16-.43.04-.99,2.83-3.56,4.92-6.29,6.02-.95.38-3.48.76-3.93,1.08-.32.23-1.12,1.91-1.61,2.51-1.2,1.44-2.91,2.55-4.29,3.76-1.62,1.42-3.58,1.59-4.99-.09-.07-.08-.19-.11-.29-.07-2.26,1.02-1.57,4.74.55,5.59.92.37,1.28-.1,1.75.03.71.2-.25,1.28-.61,1.5s-.98.25-1.16.45-.52,1.31-.78,1.73c-.9,1.49-2,2.64-3.42,3.63-.08.05-.12.15-.1.24.95,4.98,3.47,8.96,7.8,11.66,4.76,2.96,12.96,4.34,11.65-3.82-.02-.11-.11-.19-.23-.2-.24-.01-.5-.03-.7.09-.4.24-1.78,3.9-2.95,3.67-.9-.18.6-2.68,1.16-3.63.08-.14,0-.33-.16-.36-4.02-.69-8.23-3.91-8.75-8.14-.03-.25-.12-.68,0-.9.09-.14.3-.13.39,0,1.02,1.51,2.09,3.17,3.49,4.35.61.51,2.45,1.76,3.14,2.05.33.14.21-.28.13-.7-.05-.25.27-.39.42-.19,1.53,1.92,4.11,2.61,6.39,1.41,1.04-.55,3.92-3.83,4.77-4.9,2.12-2.67,3.93-6.01,3.79-9.51,0-.17-.18-.28-.33-.21-.95.39-3.06-.19-3.03-1.02,0-.05.02-.1.06-.14l.36-.44c.08-.09.21-.11.31-.05,1.6.96,3.44-1.27,3.33-2.76-.07-.85-1.97-.77-2.64-.48-3.51,1.54-.82,5.72-1.15,8.16-.55,4.09-7.62,2.87-7.32-.15.07-.7.56-1.36,1.26-1.05.08.04.14.12.14.22-.02,1.52,1.44,1.95,2.79,1.78,3.1-.39.77-4.05.81-5.98.06-3.19,3.07-5.89,6.2-4.68.14.05.29-.03.32-.18ZM74.86,62.47c-.14.03-.22.19-.16.32.96,2.36,1.91,4.76,2.45,7.27.18.85.84,3.37.22,3.92-.35.31-2.35.73-2.92.84-4.5.83-10.26.85-14.75,0-.9-.17-4.11-.89-4.67-1.52-.02-.02-.03-.05-.04-.08-1.67-5.65-3.03-11.42-5.7-16.71-.02-.04-.04-.07-.08-.09l-.37-.26c-.06-.04-.14-.05-.21-.03l-1.91.61c-.12.04-.19.17-.16.29.81,3.05,2.02,5.98,2.71,9.07,1.44,6.45,1.37,12.7-.91,18.93-.05.13.03.28.16.31.89.24,3.94.67,4.28.59.74-.19,4.33-2.73,5.05-3.37.17-.15.32-.3.48-.46.09-.09.09-.23,0-.32-.76-.87-1.85-1.94-1.99-3.07-.24-1.97,1.72-3.21,3.21-1.78.68.65,3.47,4.1,3.93,4.3.4.18,1.49.17,2.15.36,2.46.69,5.44,3.67,6.65,5.88.95,1.73,1.29,2.84.09,4.51-.06.09-.06.2,0,.28l4.31,5.74s.07.07.12.08c.63.2,2.87-.26,3.59-.3,4.66-.21,9.39-.09,14.02.46.19.02.33-.18.24-.35-.5-.89-.8-2.63.24-2.63.65,0,2.3,2.97,3.14,3.49,1.42.88,4.12.92,5.45,2.38.1.11.29.11.38-.02,1.62-2.22-2.94-3.46-3.12-4.54-.26-1.6,2.28-.78,3.07-.38,3.36,1.7,3.47,5.35,1.02,7.93-.03.13.18.12.26.09.93-.38,3.02-2.91,3.23-3.93,1.49-7.03-7.62-7.82-12.47-6.92-.09.02-.19-.02-.24-.1l-.21-.31c-.05-.07-.05-.17-.02-.24.46-.94,1.7-1.02,2.56-1.37.18-.07.3.08.25-.24,0-.03-.01-.05-.02-.08-.32-.6-2.7-2.22-3.33-2.34-1.97-.4-4.5,1.59-5.69,3-1.18,1.4-1.9,2.57-1.28,4.34.05.15-.06.32-.22.32l-6.76.16c-.19,0-.31-.19-.21-.36l2.32-4.15s0-.02.01-.03c2.36-5.76.8-13.16-1.03-18.89-1.27-3.98-2.94-7.82-4.99-11.45-.06-.11-.2-.15-.32-.1-.58.29-1.14.78-1.84.94ZM43.04,83.22c.17-.17,1-2.32,1.13-2.72.76-2.39,1.06-4.78.75-7.23-.03-.27-.42-.28-.47-.02l-.72,3.55s0,.02,0,.03c-.31.85-.51,1.72-.8,2.58-.21.64-1.18,2.49-1.22,2.89-.05.56.87,1.39,1.35.91ZM88.38,86.37c.03-2.95-.5-5.9-1.48-8.68,0,0,0-.01,0-.02l-.22-.48c-.12-.26-.51-.13-.45.15.83,4.14.99,8.41.46,12.61-.03.22.24.36.4.2,1.77-1.71,3.54-3.56,6.19-3.66.02,0,.04,0,.05,0l2.01.36c.22.04.37-.21.23-.39-1.64-2.07-4.8-1.28-6.81.11-.16.11-.37,0-.37-.2ZM38.2,81.44c.24.08.42-.2.25-.39,0,0-.01-.02-.02-.02-3.54-4.25-13.71-3.21-14.61,2.95-.04.25.28.38.43.18.22-.3.43-.63.64-.83,3.46-3.27,8.97-3.39,13.31-1.89ZM66.5,93.98c.03.11.14.18.25.17,3.62-.23.03-4.88-1.38-6.05-.83-.69-1.99-1.11-2.68-1.97-.54-.68-.04-.78.64-.64,1.17.25,3.01,1.55,3.93,2.34.59.5,3.1,3.69,3.86,2.61.91-1.31-2.48-4.6-3.42-5.37-2.29-1.89-5.15-3.01-8-1.56-1.88.96-5.41,4.44-7.39,4.44-7.1,0-19.85-7.44-25.85-2.42-1.84,1.54-2.5,5.85-.73,7.68,3.34,3.45,12.96,3.64,17.43,3.11,1.56-.19,5.42-.79,6.78-1.27.34-.12.38-.48.93-.51.65-.04,1.75.7,2.59.83,1.51.23,2.37-.22,3.66-.75.1-.04.22,0,.29.08.78,1.11,1.45,2.37,3.05,1.92,1.28-.36.08-2.11-.38-2.69s-2.69-2.67-.2-1.94c1.78.52,2.64,3.62,3.88,3.57,1.61-.07.79-2.53.09-3.37-.18-.22-3.83-2.92-2.47-3.34.04-.01.09-.01.13,0,2.33.63,4.27,2.87,4.99,5.14ZM84.92,105.46c-2.78,0-5.64.06-8.33-.66-.09-.02-.15-.09-.17-.18l-.6-2.57s-.02-.06-.04-.09l-5.57-7.34c-.09-.12-.28-.13-.38,0-.45.56-.95,1.1-1.68,1.28-.67.17-1.3-.03-1.85.09-.1.02-.96,1.06-1.69,1.21s-1.67-.17-1.91-.11c-.17.04-.52.71-.83.94-1.34,1.03-2.83.69-4.17-.11-.39-.23-.69-.82-1.11-.87-.39-.04-1.22.32-1.78.36-1.23.1-2.22-.33-3.23-.33-2.98.03-8.11,2.59-11.09,2.29-.46-.05-.72-.59-1.58-.32-.51.16-3.61,6.52-4.19,7.95-.04.09-.01.19.06.26l1.38,1.32c.13.13.35.06.4-.11.62-2.36,1.53-4.71,2.87-6.75.06-.09.33-.56.6-.9.16-.2.48-.05.42.2l-2.08,9.3c-.02.1.02.2.1.25,3.52,2.35,7.2,4.59,11.24,5.92.03.01.07.01.1.01l15.05-1.55c.12-.01.21-.11.21-.24v-1.88c0-.11-.07-.21-.18-.23-2.24-.53-5.78-1.38-5.78-4.18,0-2.93,3.69-2.03,5.78-2.04.18,0,.29-.19.21-.35-2.45-4.87,3.47-6.36,7.2-7.07.09-.02.18.02.24.1l1.8,2.49c.11.15.02.36-.17.38-2.06.23-4.05.92-5.89,1.86-.14.07-.18.26-.07.38.43.43,1.99.9,2.29.99,7.3,2.22,21.51,2.25,28.59-.68.18-.08,1.79-.77,1.52-.98-1.21-.94-4.27-1.6-5.81-1.89-3.68-.68-7.45-.79-11.19-.81,0,0-.01,0-.02,0l-4.08.33c-.2.02-.3.26-.16.4,1.59,1.64,4.45,1.48,5.75,3.56.1.16-.01.37-.2.37ZM70.95,110.3c.13,0,.24-.12.23-.25-.15-2.22-2.74-1.1-4.19-1-1,.06-2.01,0-3.01-.07-.29-.02-.36.39-.09.47h0c2.29.7,4.67.95,7.06.86Z"/>
  <path d="M100.27,40.13c1.14-.25-.45,2.28-.59,2.64-2.79,7.07,3.68,9.46,5.03,15.65,1.58,7.25-4.4,10.31-3.82,15.99.18,1.77,1.6,3.01,2.18,4.62.84,2.32.46,4.67-1.38,6.38-.97-.78.36-2.17.44-3.33.16-2.57-2.51-4.99-3.13-7.58-1.29-5.4,4.18-9.2,2.84-14.84-.93-3.95-4.99-6.81-5.26-11.03-.21-3.17,1.36-6.42,3.68-8.51Z"/>
  <path d="M107.28,49.82c1.06-.29.24,1.69.24,2.21,0,2.35,2.75,4.7,3.79,6.77,1.46,2.93,1.64,5.93,0,8.83-1.27,2.25-4.43,4.42-4.68,7.13-.21,2.32,1.1,3.24,1.53,5.27.49,2.35-.26,4.65-1.8,6.46-.42.5-1.36,1.67-1.63.53.75-1.66,2.12-3.76,2.09-5.63-.04-2.25-2.08-3.59-2.44-5.45-1.1-5.82,5.59-7.75,4.91-13.86-.45-4.03-5.58-7.17-2.67-11.48.16-.23.4-.71.66-.78Z"/>
  <path d="M96.24,56.24c-.02,1.2-.64,2.31-.65,3.52,0,2.56,2.48,4.37,2.45,6.77-.02,1.51-.69,3.26-1.89,4.2-.83-.54-.11-1.61-.08-2.42.1-3.31-3.68-4.81-2.24-9.56.3-.97,1.19-2.79,2.41-2.51Z"/>
  <path d="M77.99,53.74c-1.1,2.67-5.04,2.76-7.06,1.07-.57-.48-1.41-1.99-1.52-2.06-.13-.07-1.31.29-1.69-.07-.81-.59,1.73-1.05,2.16-1.23.67-.28,1.25-.71,1.85-1.11.28.34-1.19,1.61-1.43,1.88,1.92,2.36,4.99,2.89,7.69,1.52Z"/>
  <path d="M67.79,40.85c-.08-.34.19-.42.36-.63,1.36-1.65,3.94-3.11,6.09-2.15.41.18,1.17.83,1.25,1.26.35,1.99-2.1.13-3.13.12-1.47-.01-3.12,1.13-4.56,1.4Z"/>
  <path d="M74.41,43.18c-.33,2.03-2.85,2.2-4.36,1.22-.57-.37-1.34-1.14-.72-1.77,1.36.6,2.4.83,3.91.72.39-.03.68-.45,1.17-.17Z"/>
  <path d="M63.31,103.49c.2,1.52-2.37,1.62-3.51,1.77-5.5.68-12.55-.71-16-5.35,3.08,1.28,6.13,2.6,9.45,3.17,3.35.58,6.67.39,10.06.41Z"/>
  <path d="M90.52,104.86c-.57.08-1.3.12-1.79.04-.28-.05-.51-.26-.58-.53h0c-.09-.37.12-.75.49-.86.47-.14,1.12-.19,1.58-.26.31-.05.61.1.76.38.04.08.08.18.12.27.17.43-.12.9-.58.96Z"/>
</svg>