<?xml version="1.0" encoding="UTF-8"?>
<svg id="Capa_1" data-name="Capa 1" xmlns="http://www.w3.org/2000/svg" viewBox="0 0 708.66 283.46">
  <g>
    <path d="M229.72,141.73c0,60.01-48.65,108.67-108.67,108.67S12.39,201.75,12.39,141.73,61.04,33.07,121.06,33.07s108.67,48.65,108.67,108.67ZM204.35,196.45c.08.41.61.52.84.17,19.76-29.84,21.35-69.66,4.71-101.34-15.46-29.43-43.16-48.97-76.36-53.02-65.44-7.97-118.93,45.92-112.16,111.12,1.21,11.7,5.06,23.66,10.6,34.05.23.43.89.25.87-.24-.05-1.33-.05-2.66-.05-3.99,0-3.05-.22-2.41-1.03-5.18-1.29-4.39-.32-9.13,2.49-12.78.82-1.06,2.01-1.61,2.57-2.64,1.19-2.16,2.1-6.06,3.21-8.58,6.46-14.71,18.96-31,34.48-36.63,4.19-1.52,14.55-3.48,17.43-5.81.23-.18.64-.52.98-.88s-.06-.92-.51-.74c-4.42,1.75-10.26-.78-12-5.21-.87-2.23-.37-4.08-.85-5.74-.16-.57-1.34-1.82-1.76-3.1-1.56-4.78.58-10.61,5.25-12.6.26-.11.35-.43.2-.67-.59-.94-2.28-2.82-2.66-3.4-1.54-2.36-3.07-5.24-1.11-7.86.76-1.02,5.39-3.72,6.9-4.89,4.47-3.48,8.44-7.57,13.06-10.87,16.15-11.56,35.6-14.03,49.01,2.95,6.55,8.29,12.07,15.74,8.55,26.86-.84,2.66-1.56,5.34-2.43,7.98-.33,1.01-1.43,2.49-1.56,3.24-.23,1.33.62,4.49.52,6.47-.4,7.37-5.43,14.22-10.05,19.67-.19.22-.12.56.13.7,14.79,8.18,21.43,24.11,26.91,39.27.87,2.39,1.84,7.06,2.84,8.95.59,1.12,3.19,2.23,4.38,4.29,1.68,2.92.65,3.22,3.37,6,.58.59,3.3,3.71,3.53,3.85.75.44,4.36.73,5.73,1.12,3.38.94,9.57,4.53,12.39,6.69,1,.76,1.38,1.71,1.59,2.8ZM145.75,62.08c.44.2.86-.31.57-.7-1.35-1.76-4.36-4.64-4.93-5.11-10.8-9.09-24.3-7.02-35.7-.31-8.26,4.86-14.5,12.47-22.71,17.45-.03.02-.06.04-.09.07-1.25,1.21.65,3.33,1.47,4.45,1.52,2.11,3.52,4.07,5.32,6.01.24.26.68.16.78-.18l1.66-5.6s.01-.03.02-.05c3.41-8.18,9.79-16.63,18.44-19.6.49-.17.84.48.43.81-9.02,7.06-16.85,16.63-17.5,28.52-.02.41-.3,2.97.53,2.61,8.9-6.36,16.47-14.78,25.18-21.3,7.33-5.49,17.41-11.29,26.53-7.06ZM152.61,86.07c1.52-7.3-3.45-10.6-8.38-14.84-.04-.03-.07-.08-.1-.12l-2.91-5.07c-.2-.34-.71-.3-.84.07-1.92,5.49-6.9,9.53-12.19,11.66-1.83.74-6.74,1.47-7.62,2.09-.63.45-2.16,3.7-3.12,4.86-2.32,2.8-5.63,4.94-8.32,7.29-3.13,2.75-6.94,3.09-9.68-.18-.14-.16-.36-.22-.56-.13-4.37,1.98-3.05,9.18,1.06,10.84,1.78.72,2.48-.19,3.39.06,1.38.39-.48,2.48-1.18,2.91s-1.9.48-2.24.88-1.01,2.54-1.5,3.35c-1.74,2.89-3.87,5.12-6.63,7.03-.15.11-.23.29-.2.47,1.85,9.66,6.73,17.36,15.12,22.59,9.22,5.74,25.11,8.4,22.58-7.4-.03-.22-.22-.38-.44-.39-.47-.02-.97-.05-1.36.18-.77.46-3.46,7.56-5.71,7.11-1.74-.34,1.17-5.19,2.26-7.04.16-.28,0-.64-.32-.69-7.8-1.34-15.95-7.59-16.95-15.78-.06-.48-.24-1.33.02-1.75.17-.28.58-.26.76,0,1.98,2.93,4.04,6.15,6.76,8.43,1.18.99,4.76,3.42,6.08,3.98.63.27.42-.55.25-1.36-.1-.48.51-.76.82-.38,2.97,3.73,7.96,5.07,12.39,2.72,2.02-1.07,7.6-7.42,9.24-9.49,4.11-5.17,7.61-11.64,7.34-18.43-.01-.32-.34-.53-.64-.41-1.84.76-5.92-.37-5.86-1.98,0-.1.04-.2.11-.28l.7-.85c.15-.18.4-.22.6-.1,3.11,1.86,6.67-2.47,6.45-5.34-.13-1.65-3.82-1.49-5.11-.93-6.8,2.99-1.58,11.09-2.22,15.82-1.07,7.93-14.76,5.56-14.18-.28.13-1.36,1.08-2.64,2.44-2.03.16.07.27.24.27.42-.05,2.95,2.8,3.78,5.41,3.46,6-.75,1.49-7.85,1.56-11.59.12-6.19,5.95-11.41,12.01-9.06.27.1.57-.06.63-.34ZM134.3,130.95c-.28.06-.42.36-.32.62,1.86,4.58,3.7,9.23,4.75,14.08.35,1.64,1.63,6.53.43,7.59-.68.6-4.55,1.41-5.67,1.62-8.72,1.62-19.89,1.65-28.59,0-1.74-.33-7.97-1.72-9.06-2.95-.04-.05-.07-.1-.08-.16-3.24-10.95-5.87-22.13-11.05-32.38-.04-.07-.09-.13-.15-.17l-.72-.5c-.12-.08-.27-.11-.41-.06l-3.7,1.19c-.24.08-.37.32-.31.56,1.58,5.91,3.92,11.59,5.25,17.59,2.79,12.51,2.66,24.62-1.76,36.69-.09.25.05.53.31.6,1.73.46,7.64,1.3,8.29,1.13,1.44-.37,8.39-5.3,9.79-6.52.33-.28.63-.59.93-.9.17-.17.17-.45.01-.63-1.48-1.68-3.58-3.75-3.85-5.95-.47-3.83,3.33-6.23,6.23-3.45,1.32,1.27,6.73,7.94,7.62,8.33.78.34,2.88.34,4.16.7,4.77,1.35,10.54,7.11,12.89,11.39,1.84,3.35,2.49,5.5.18,8.75-.12.17-.12.39,0,.55l8.35,11.12c.06.08.13.13.22.16,1.22.39,5.56-.51,6.96-.57,9.03-.4,18.2-.17,27.17.9.37.04.65-.35.46-.68-.98-1.73-1.55-5.11.46-5.09,1.25,0,4.46,5.76,6.08,6.76,2.74,1.7,7.98,1.79,10.56,4.61.2.22.55.2.73-.04,3.13-4.31-5.7-6.71-6.04-8.8-.5-3.09,4.42-1.51,5.95-.73,6.5,3.3,6.73,10.36,1.97,15.38-.06.26.35.23.51.17,1.8-.74,5.85-5.64,6.27-7.61,2.88-13.62-14.77-15.16-24.17-13.41-.18.03-.36-.04-.47-.2l-.4-.59c-.09-.14-.1-.32-.03-.47.88-1.81,3.3-1.99,4.97-2.65.34-.14.58.16.49-.47,0-.05-.02-.1-.05-.15-.63-1.17-5.23-4.29-6.46-4.54-3.82-.77-8.72,3.07-11.02,5.82-2.28,2.72-3.69,4.98-2.49,8.41.1.3-.11.61-.42.62l-13.09.31c-.36,0-.59-.38-.42-.69l4.5-8.04s.02-.04.03-.06c4.57-11.16,1.55-25.51-2-36.61-2.46-7.71-5.7-15.16-9.67-22.19-.12-.22-.39-.3-.61-.19-1.13.57-2.21,1.52-3.56,1.82ZM72.62,171.17c.32-.33,1.94-4.51,2.18-5.28,1.47-4.64,2.05-9.25,1.45-14-.07-.52-.81-.55-.92-.03l-1.4,6.89s-.01.04-.02.06c-.6,1.64-1,3.34-1.55,5-.41,1.24-2.29,4.83-2.36,5.6-.1,1.08,1.69,2.7,2.61,1.76ZM160.49,177.26c.05-5.72-.97-11.44-2.88-16.82,0-.01-.01-.03-.02-.04l-.43-.94c-.23-.5-.98-.26-.88.28,1.6,8.03,1.92,16.31.89,24.43-.05.43.47.69.78.39,3.43-3.31,6.85-6.89,11.99-7.09.04,0,.07,0,.11,0l3.9.7c.42.08.71-.41.45-.75-3.18-4.01-9.3-2.48-13.19.22-.31.21-.73-.01-.72-.38ZM63.24,167.72c.46.16.82-.39.49-.75-.01-.02-.03-.03-.04-.05-6.87-8.24-26.56-6.23-28.32,5.72-.07.48.55.73.83.35.43-.58.83-1.22,1.24-1.61,6.71-6.34,17.38-6.56,25.79-3.66ZM118.09,192.03c.07.21.26.34.48.33,7.01-.44.05-9.46-2.68-11.73-1.62-1.34-3.86-2.15-5.2-3.82-1.05-1.31-.07-1.52,1.23-1.24,2.27.47,5.83,3,7.62,4.53,1.14.98,6.02,7.15,7.47,5.06,1.76-2.53-4.8-8.91-6.62-10.42-4.43-3.67-9.98-5.84-15.5-3.03-3.65,1.85-10.48,8.6-14.32,8.6-13.76,0-38.46-14.41-50.1-4.69-3.57,2.98-4.85,11.33-1.41,14.89,6.47,6.69,25.12,7.06,33.77,6.03,3.02-.36,10.5-1.52,13.14-2.46.66-.23.74-.92,1.81-1,1.25-.08,3.4,1.36,5.01,1.61,2.93.45,4.59-.42,7.1-1.45.2-.08.43-.02.56.16,1.51,2.16,2.81,4.58,5.92,3.72,2.49-.69.15-4.08-.74-5.21s-5.21-5.17-.4-3.76c3.45,1.01,5.12,7.01,7.52,6.91,3.11-.13,1.54-4.91.17-6.53-.36-.42-7.43-5.66-4.78-6.46.08-.02.17-.02.25,0,4.51,1.23,8.27,5.55,9.67,9.97ZM153.79,214.26c-5.38-.02-10.92.11-16.14-1.28-.17-.04-.29-.18-.33-.35l-1.15-4.98c-.01-.06-.04-.12-.08-.18l-10.8-14.23c-.18-.24-.54-.24-.73,0-.87,1.09-1.84,2.12-3.26,2.48-1.29.33-2.51-.05-3.58.17-.2.04-1.87,2.04-3.27,2.34-1.33.28-3.23-.32-3.71-.21-.32.08-1,1.37-1.61,1.83-2.6,1.99-5.49,1.34-8.07-.21-.75-.45-1.34-1.59-2.14-1.68-.75-.08-2.36.62-3.45.71-2.38.19-4.31-.65-6.26-.63-5.78.05-15.71,5.02-21.49,4.43-.89-.09-1.39-1.14-3.07-.62-.98.3-7.01,12.63-8.12,15.41-.07.18-.03.38.11.51l2.68,2.55c.26.24.68.12.77-.22,1.2-4.58,2.97-9.12,5.56-13.08.12-.18.64-1.08,1.16-1.75.3-.39.93-.09.82.39l-4.04,18.02c-.04.19.04.38.2.49,6.83,4.56,13.95,8.89,21.79,11.47.06.02.13.03.2.02l29.16-3c.24-.02.42-.22.42-.46v-3.64c.01-.22-.14-.4-.35-.45-4.35-1.02-11.2-2.67-11.21-8.1-.01-5.68,7.15-3.93,11.2-3.96.34,0,.56-.37.41-.67-4.74-9.44,6.73-12.33,13.95-13.69.18-.03.35.04.46.18l3.49,4.83c.21.29.03.69-.32.73-3.99.45-7.86,1.78-11.41,3.6-.27.14-.34.51-.13.73.83.83,3.85,1.75,4.44,1.92,14.14,4.3,41.69,4.35,55.41-1.31.35-.15,3.47-1.49,2.95-1.9-2.35-1.83-8.27-3.1-11.26-3.66-7.13-1.32-14.43-1.54-21.68-1.57-.01,0-.03,0-.04,0l-7.91.64c-.39.03-.57.5-.3.78,3.09,3.18,8.63,2.86,11.15,6.89.19.31-.03.71-.39.71ZM126.71,223.66c.26-.01.46-.23.45-.49-.28-4.3-5.32-2.13-8.13-1.94-1.94.13-3.89.02-5.83-.13-.55-.04-.7.75-.17.91h0c4.44,1.35,9.04,1.85,13.68,1.66Z"/>
    <path d="M183.54,87.67c2.21-.49-.87,4.42-1.14,5.11-5.4,13.7,7.14,18.33,9.75,30.32,3.06,14.05-8.52,19.98-7.4,30.99.35,3.43,3.09,5.83,4.22,8.96,1.63,4.51.9,9.04-2.67,12.37-1.88-1.52.7-4.21.85-6.46.32-4.99-4.86-9.68-6.06-14.68-2.5-10.46,8.1-17.82,5.51-28.75-1.81-7.66-9.66-13.2-10.2-21.37-.4-6.14,2.64-12.45,7.13-16.49Z"/>
    <path d="M197.11,106.44c2.06-.55.47,3.28.47,4.29,0,4.55,5.34,9.1,7.34,13.12,2.83,5.68,3.18,11.5,0,17.12-2.47,4.36-8.59,8.56-9.07,13.82-.41,4.49,2.14,6.28,2.96,10.21.96,4.56-.51,9.01-3.48,12.51-.82.96-2.64,3.23-3.15,1.02,1.46-3.22,4.11-7.28,4.04-10.91-.08-4.35-4.04-6.95-4.73-10.57-2.14-11.27,10.83-15.01,9.52-26.86-.86-7.81-10.82-13.9-5.17-22.24.3-.45.77-1.37,1.27-1.51Z"/>
    <path d="M175.73,118.88c-.04,2.33-1.25,4.47-1.25,6.82-.01,4.96,4.8,8.47,4.75,13.12-.03,2.93-1.34,6.32-3.67,8.15-1.6-1.05-.21-3.12-.16-4.7.19-6.41-7.13-9.32-4.34-18.53.57-1.89,2.3-5.41,4.67-4.87Z"/>
    <path d="M140.35,114.03c-2.12,5.17-9.76,5.34-13.69,2.07-1.11-.93-2.72-3.86-2.94-3.99-.24-.14-2.54.55-3.28-.14-1.57-1.14,3.34-2.03,4.19-2.39,1.3-.55,2.42-1.38,3.58-2.14.53.65-2.3,3.12-2.77,3.64,3.72,4.57,9.68,5.6,14.91,2.95Z"/>
    <path d="M120.58,89.05c-.15-.65.37-.82.69-1.21,2.64-3.2,7.64-6.02,11.8-4.16.79.35,2.28,1.6,2.43,2.44.68,3.86-4.07.24-6.07.23-2.84-.03-6.06,2.19-8.85,2.71Z"/>
    <path d="M133.41,93.56c-.65,3.94-5.53,4.27-8.44,2.37-1.1-.72-2.6-2.21-1.4-3.43,2.64,1.16,4.65,1.61,7.57,1.39.76-.06,1.31-.87,2.27-.33Z"/>
    <path d="M111.91,210.46c.38,2.95-4.58,3.15-6.81,3.42-10.66,1.33-24.33-1.37-31-10.36,5.97,2.49,11.87,5.03,18.31,6.14,6.5,1.12,12.93.76,19.5.8Z"/>
    <path d="M164.63,213.11c-1.11.15-2.51.24-3.47.08-.55-.09-.98-.5-1.12-1.03h0c-.18-.72.24-1.45.95-1.66.92-.27,2.18-.37,3.05-.51.6-.1,1.19.2,1.46.75.08.16.16.34.23.52.33.83-.23,1.74-1.12,1.86Z"/>
  </g>
  <g>
    <path d="M277.23,103.57c.87-1.71,1.72-3.68,2.53-5.93,2.75,1.59,5.95,2.83,9.6,3.72,3.65.89,7.04,1.34,10.18,1.34s5.49-.28,6.81-.84c1.32-.56,1.98-1.17,1.98-1.83,0-2.37-3.61-3.55-10.82-3.55-7.91,0-13.65-.82-17.22-2.47-3.57-1.65-5.35-4.31-5.35-8,0-5.24,2.17-9.1,6.52-11.58,4.34-2.48,9.99-3.72,16.93-3.72,4.03,0,8.17.51,12.42,1.54,4.25,1.03,8.08,2.43,11.49,4.22-1.13,2.56-2.31,5.68-3.55,9.37-.23.78-.43,1.36-.58,1.75-1.98-1.59-4.97-2.92-8.96-3.99-4-1.07-7.53-1.6-10.59-1.6-3.69,0-6.17.24-7.45.73-1.28.49-1.92,1.19-1.92,2.12s.88,1.68,2.65,2.24c1.76.56,4.31.84,7.65.84,8.22,0,14.2.94,17.92,2.82,3.72,1.88,5.59,4.76,5.59,8.64,0,5.43-1.98,9.34-5.94,11.72-3.96,2.39-9.95,3.58-17.98,3.58-4.31,0-8.69-.48-13.15-1.43-4.46-.95-8.48-2.34-12.04-4.16,1.32-1.98,2.41-3.82,3.29-5.53Z"/>
    <path d="M371.95,94.49c-1.65,2.33-4.47,4.01-8.46,5.06.46.62.79,1.11.99,1.45l9.43,13.09h-15.83c-1.71-3.18-4.4-7.68-8.09-13.5h-8.55v13.5h-13.73c.31-7.52.47-14.56.47-21.12s-.16-13.59-.47-21.12h13.73v.06h11.93c7.83,0,13.3,1.26,16.41,3.78,3.1,2.52,4.66,5.93,4.66,10.24,0,3.37-.83,6.23-2.47,8.55ZM341.43,83.08v6.63h7.85c3.3,0,5.79-.11,7.48-.32,1.69-.21,2.86-.55,3.52-1.02.66-.47.99-1.14.99-2.04s-.31-1.51-.93-1.98c-.62-.47-1.78-.79-3.49-.99-1.71-.19-4.23-.29-7.56-.29h-7.85Z"/>
    <path d="M412.3,114.1c-.74-2.21-1.73-4.98-2.97-8.32h-18.56l-2.91,8.32h-14.6l16.29-42.24h21.41l16.41,42.24h-15.07ZM406.02,96.7c-1.47-4.07-2.99-8.15-4.54-12.22l-1.4-3.78c-1.36,3.53-3.36,8.86-5.99,16h11.93Z"/>
    <path d="M431.67,112.85c-1.2-1.22-1.8-2.69-1.8-4.39s.6-3.16,1.8-4.36c1.2-1.2,2.66-1.8,4.36-1.8s3.11.61,4.33,1.83c1.22,1.22,1.83,2.67,1.83,4.33s-.61,3.17-1.83,4.39c-1.22,1.22-2.67,1.83-4.33,1.83s-3.16-.61-4.36-1.83Z"/>
    <path d="M318.46,194.65c2.73,1.29,5.89,2.54,9.47,3.73-3.33,2.83-7.71,6.61-13.13,11.34-5.57-4.28-10.32-9.13-14.25-14.55-8.9-1.04-15.45-3.98-19.66-8.8-4.2-4.82-6.3-11.19-6.3-19.1,0-8.85,2.67-15.76,8.02-20.74,5.35-4.97,13.74-7.46,25.18-7.46s19.9,2.49,25.25,7.46c5.35,4.97,8.02,11.89,8.02,20.74,0,15.52-7.53,24.64-22.6,27.38ZM319.73,177.16c2.44-2.11,3.66-5.41,3.66-9.88s-1.22-7.63-3.66-9.77c-2.44-2.14-6.42-3.21-11.94-3.21s-9.42,1.07-11.86,3.21c-2.44,2.14-3.65,5.4-3.65,9.77s1.22,7.71,3.65,9.85c2.44,2.14,6.39,3.21,11.86,3.21s9.5-1.06,11.94-3.17Z"/>
    <path d="M391.19,140.57h18.5v29.69c-.1,7.31-2.6,13.35-7.5,18.13-4.9,4.77-13.14,7.16-24.73,7.16s-19.77-2.28-24.09-6.83c-4.33-4.55-6.44-10.53-6.34-17.94v-30.21h18.5v29.02c0,2.19.16,3.97.49,5.33.32,1.37,1.37,2.65,3.13,3.84,1.76,1.19,4.61,1.79,8.54,1.79,4.28,0,7.41-.61,9.4-1.83,1.99-1.22,3.17-2.57,3.54-4.07.37-1.49.56-3.41.56-5.74v-28.35Z"/>
    <path d="M485.4,140.65l5.82,54.15h-19.32l-1.19-38.64-7.46,38.64h-19.54l-7.61-38.34-1.12,38.34h-19.32l5.82-54.15h25.36l6.49,35.28,5.67-35.28h26.41Z"/>
    <path d="M544.25,194.8c-.94-2.83-2.21-6.39-3.8-10.67h-23.8l-3.73,10.67h-18.72l20.89-54.15h27.45l21.04,54.15h-19.32ZM536.2,172.5c-1.89-5.22-3.83-10.44-5.82-15.66l-1.79-4.85c-1.74,4.53-4.3,11.36-7.68,20.51h15.29Z"/>
    <path d="M624.25,169.67c-2.11,2.98-5.73,5.15-10.85,6.49.6.8,1.02,1.42,1.27,1.87l12.08,16.78h-20.29c-2.19-4.08-5.64-9.85-10.37-17.31h-10.96v17.31h-17.6c.4-9.65.6-18.67.6-27.08s-.2-17.43-.6-27.08h17.6v.07h15.29c10.04,0,17.06,1.62,21.04,4.85,3.98,3.23,5.97,7.61,5.97,13.13,0,4.33-1.06,7.98-3.17,10.97ZM585.13,155.04v8.5h10.07c4.23,0,7.42-.14,9.58-.41,2.16-.27,3.67-.71,4.51-1.31.84-.6,1.27-1.47,1.27-2.61s-.4-1.94-1.19-2.54c-.8-.6-2.29-1.02-4.48-1.27-2.19-.25-5.42-.37-9.7-.37h-10.07Z"/>
    <path d="M675.98,194.8c-.94-2.83-2.21-6.39-3.8-10.67h-23.8l-3.73,10.67h-18.72l20.89-54.15h27.45l21.04,54.15h-19.32ZM667.93,172.5c-1.89-5.22-3.83-10.44-5.82-15.66l-1.79-4.85c-1.74,4.53-4.3,11.36-7.68,20.51h15.29Z"/>
  </g>
</svg>